<?xml version="1.0" encoding="utf-8"?>
<!-- Generator: Adobe Illustrator 27.5.0, SVG Export Plug-In . SVG Version: 6.00 Build 0)  -->
<svg version="1.1" id="Capa_1" xmlns="http://www.w3.org/2000/svg" xmlns:xlink="http://www.w3.org/1999/xlink" x="0px" y="0px"
	 viewBox="0 0 337.5 327.2" style="enable-background:new 0 0 337.5 327.2;" xml:space="preserve">
<style type="text/css">
	.st0{fill:#B2B2B2;}
	.st1{fill:#FFFFFF;}
	.st2{fill:#FFFFFF;stroke:#000000;stroke-width:0.25;stroke-miterlimit:10;}
</style>
<path class="st0" d="M203.5,298L86.6,276.5c-37.4-6.8-62.1-42.7-55.2-80L52.8,79.6c6.8-37.4,42.7-62.1,80-55.2l116.9,21.4
	c37.4,6.8,62.1,42.7,55.2,80l-21.4,116.9C276.6,280.1,240.8,304.8,203.5,298z"/>
<path d="M219.7,278.7H110.8c-34.8,0-63-28.2-63-63V106.7c0-34.8,28.2-63,63-63h108.9c34.8,0,63,28.2,63,63v108.9
	C282.8,250.5,254.5,278.7,219.7,278.7z"/>
<g>
	<polygon class="st1" points="208,133.8 176.9,133.8 161.3,160.7 176.9,187.6 208,187.6 223.5,160.7 	"/>
	<polygon class="st2" points="207.1,135.3 177.8,135.3 163.1,160.7 177.8,186.1 207.1,186.1 221.8,160.7 	"/>
</g>
<g>
	<polygon class="st1" points="156.3,105.3 125.2,105.3 109.7,132.2 125.2,159.1 156.3,159.1 171.8,132.2 	"/>
	<polygon class="st2" points="155.4,106.8 126.1,106.8 111.4,132.2 126.1,157.6 155.4,157.6 170.1,132.2 	"/>
</g>
<g>
	<polygon class="st1" points="156.3,162.5 125.2,162.5 109.7,189.4 125.2,216.4 156.3,216.4 171.8,189.4 	"/>
	<polygon class="st2" points="155.4,164 126.1,164 111.4,189.4 126.1,214.9 155.4,214.9 170.1,189.4 	"/>
</g>
</svg>
